<svg xmlns="http://www.w3.org/2000/svg" viewBox="0 0 64 64" role="img" aria-label="GizmoCraft pickaxe icon">
  <defs>
    <radialGradient id="bg" cx="34%" cy="28%" r="78%">
      <stop offset="0" stop-color="#164842"/>
      <stop offset="0.58" stop-color="#0d332f"/>
      <stop offset="1" stop-color="#071f1d"/>
    </radialGradient>
    <linearGradient id="steel" x1="14" y1="19" x2="48" y2="20" gradientUnits="userSpaceOnUse">
      <stop offset="0" stop-color="#d4e2e5"/>
      <stop offset="0.45" stop-color="#9eb4bb"/>
      <stop offset="1" stop-color="#6d8790"/>
    </linearGradient>
    <linearGradient id="handle" x1="31" y1="30" x2="49" y2="50" gradientUnits="userSpaceOnUse">
      <stop offset="0" stop-color="#9a879e"/>
      <stop offset="1" stop-color="#604f6e"/>
    </linearGradient>
  </defs>

  <rect width="64" height="64" rx="14" fill="url(#bg)"/>
  <circle cx="32" cy="32" r="24" fill="none" stroke="#2e635c" stroke-width="2" opacity="0.72"/>
  <circle cx="32" cy="32" r="21" fill="none" stroke="#0a2724" stroke-width="1.5" opacity="0.65"/>

  <path d="M17 24c6.4-8.2 16.3-11.1 30.4-8.7" fill="none" stroke="#314e54" stroke-width="8.5" stroke-linecap="round" opacity="0.38"/>
  <path d="M18 22.8c6.2-7.1 15.2-9.5 27.8-7.1" fill="none" stroke="url(#steel)" stroke-width="6.2" stroke-linecap="round"/>
  <path d="M37.5 17.4l8.8-4.1c2.1 4.1 1.3 8.2-2.7 12.7l-8-2.9z" fill="#7d969f"/>
  <path d="M20.5 22.3c4.2-4.5 10.4-7 17.5-7" fill="none" stroke="#edf7f7" stroke-width="2" stroke-linecap="round" opacity="0.58"/>

  <path d="M29.4 27.9l5.3-5.3 6.1 6.1-5.3 5.3z" fill="#a65b63"/>
  <path d="M31.2 28.1l3.7-3.7 4.1 4.1-3.7 3.7z" fill="#c17a76" opacity="0.72"/>

  <path d="M34.1 31.4l4.3-4.3 14 17.2c1.7 2.1 1.5 4.7-.3 6.2-1.8 1.5-4.4 1-6.1-1.1z" fill="#493f55" opacity="0.6"/>
  <path d="M31.9 32.7l5.3-5.3 14.3 17.3c1.4 1.7 1.3 3.9-.2 5.2-1.6 1.3-3.8.8-5.2-.9z" fill="url(#handle)"/>
  <path d="M36.7 30.1l12.7 15.2" fill="none" stroke="#c1b2c8" stroke-width="1.6" stroke-linecap="round" opacity="0.42"/>
</svg>
